<svg width="28" height="30" viewBox="0 0 28 30" fill="none" xmlns="http://www.w3.org/2000/svg">
<g id="Group">
<path id="Vector" d="M13.8346 23.2487C19.9784 23.2487 24.9589 18.2681 24.9589 12.1243C24.9589 5.98054 19.9784 1 13.8346 1C7.69081 1 2.71027 5.98054 2.71027 12.1243C2.71027 18.2681 7.69081 23.2487 13.8346 23.2487Z" stroke="#343434" stroke-opacity="0.8" stroke-width="1.5" stroke-linecap="round" stroke-linejoin="round"/>
<g id="Group_2">
<path id="Vector_2" d="M4.78378 18.7838L1 25.2465L5.46488 25.0043L7.49299 28.9849L10.8378 23.3244C8.31027 22.6735 6.28216 20.8422 4.78378 18.7838Z" stroke="#343434" stroke-opacity="0.8" stroke-width="1.5" stroke-linecap="round" stroke-linejoin="round"/>
<path id="Vector_3" d="M22.946 18.7838C21.4627 20.8573 19.4195 22.6584 16.8919 23.3244L20.2368 29L22.2649 25.0195L26.7297 25.2616L22.946 18.7838Z" stroke="#343434" stroke-opacity="0.8" stroke-width="1.5" stroke-linecap="round" stroke-linejoin="round"/>
</g>
<path id="Vector_4" d="M20.1914 10.7168C20.4789 10.4443 20.3124 9.94485 19.9189 9.89945L16.2714 9.36971C16.12 9.33944 15.9838 9.24864 15.9081 9.09728L14.2735 5.78269C14.0919 5.41944 13.5773 5.41944 13.4108 5.78269L11.7762 9.09728C11.7005 9.2335 11.5643 9.33944 11.413 9.36971L7.76542 9.89945C7.37191 9.95999 7.22057 10.4443 7.493 10.7168L10.1416 13.2897C10.2627 13.4108 10.3081 13.5621 10.2779 13.7135L9.65731 17.3459C9.58164 17.7394 10.0054 18.0421 10.3535 17.8454L13.6227 16.1351C13.7589 16.0594 13.9406 16.0594 14.0768 16.1351L17.3459 17.8454C17.694 18.027 18.1179 17.7243 18.0422 17.3459L17.4216 13.7135C17.3914 13.5621 17.4519 13.3956 17.5579 13.2897L20.1914 10.7168Z" stroke="#343434" stroke-opacity="0.8" stroke-width="1.5" stroke-linecap="round" stroke-linejoin="round"/>
</g>
</svg>
