<svg width="32" height="32" viewBox="0 0 32 32" fill="none" xmlns="http://www.w3.org/2000/svg">
<path d="M20.1334 7.74677H11.8668C10.7254 7.74677 9.80011 8.67204 9.80011 9.81343C9.80011 10.9548 10.7254 11.8801 11.8668 11.8801H20.1334C21.2748 11.8801 22.2001 10.9548 22.2001 9.81343C22.2001 8.67204 21.2748 7.74677 20.1334 7.74677Z" stroke="#343434" stroke-opacity="0.8" stroke-width="1.5" stroke-linecap="round" stroke-linejoin="round"/>
<path d="M10.52 18.0134C10.7837 18.0134 11.0415 17.9352 11.2608 17.7887C11.4801 17.6422 11.651 17.434 11.7519 17.1903C11.8528 16.9467 11.8792 16.6786 11.8278 16.42C11.7763 16.1613 11.6493 15.9237 11.4628 15.7373C11.2764 15.5508 11.0388 15.4238 10.7802 15.3724C10.5215 15.3209 10.2534 15.3473 10.0098 15.4482C9.76616 15.5492 9.55792 15.72 9.41141 15.9393C9.26491 16.1586 9.18671 16.4164 9.18671 16.6801C9.18671 17.0337 9.32718 17.3728 9.57723 17.6229C9.82728 17.8729 10.1664 18.0134 10.52 18.0134Z" fill="#343434" fill-opacity="0.8"/>
<path d="M10.8441 17.1651C10.7482 17.2292 10.6354 17.2634 10.52 17.2634C10.3653 17.2634 10.217 17.2019 10.1076 17.0926C9.99816 16.9832 9.93671 16.8348 9.93671 16.6801C9.93671 16.5647 9.97092 16.4519 10.035 16.356C10.0991 16.2601 10.1902 16.1853 10.2968 16.1411C10.4034 16.097 10.5207 16.0854 10.6338 16.1079C10.747 16.1305 10.8509 16.186 10.9325 16.2676C11.0141 16.3492 11.0697 16.4531 11.0922 16.5663C11.1147 16.6794 11.1031 16.7967 11.059 16.9033C11.0148 17.0099 10.9401 17.101 10.8441 17.1651Z" stroke="#343434" stroke-opacity="0.8" stroke-width="1.5"/>
<path d="M16.0001 18.0134C16.2639 18.0134 16.5216 17.9352 16.7409 17.7887C16.9602 17.6422 17.1311 17.434 17.232 17.1903C17.3329 16.9467 17.3593 16.6786 17.3079 16.42C17.2564 16.1613 17.1294 15.9237 16.943 15.7373C16.7565 15.5508 16.5189 15.4238 16.2603 15.3724C16.0016 15.3209 15.7335 15.3473 15.4899 15.4482C15.2463 15.5492 15.038 15.72 14.8915 15.9393C14.745 16.1586 14.6668 16.4164 14.6668 16.6801C14.6668 17.0337 14.8073 17.3728 15.0573 17.6229C15.3074 17.8729 15.6465 18.0134 16.0001 18.0134Z" fill="#343434" fill-opacity="0.8"/>
<path d="M16.3242 17.1651C16.2283 17.2292 16.1155 17.2634 16.0001 17.2634C15.8454 17.2634 15.6971 17.2019 15.5877 17.0926C15.4783 16.9832 15.4168 16.8348 15.4168 16.6801C15.4168 16.5647 15.451 16.4519 15.5151 16.356C15.5792 16.2601 15.6703 16.1853 15.7769 16.1411C15.8835 16.097 16.0008 16.0854 16.1139 16.1079C16.2271 16.1305 16.331 16.186 16.4126 16.2676L16.943 15.7373L16.4126 16.2676C16.4942 16.3492 16.5498 16.4531 16.5723 16.5663C16.5948 16.6794 16.5832 16.7967 16.5391 16.9033C16.4949 17.0099 16.4202 17.101 16.3242 17.1651Z" stroke="#343434" stroke-opacity="0.8" stroke-width="1.5"/>
<path d="M21.5868 18.0134C21.8505 18.0134 22.1083 17.9352 22.3275 17.7887C22.5468 17.6422 22.7177 17.434 22.8186 17.1903C22.9195 16.9467 22.9459 16.6786 22.8945 16.42C22.843 16.1613 22.7161 15.9237 22.5296 15.7373C22.3431 15.5508 22.1055 15.4238 21.8469 15.3724C21.5883 15.3209 21.3202 15.3473 21.0765 15.4482C20.8329 15.5492 20.6247 15.72 20.4782 15.9393C20.3316 16.1586 20.2534 16.4164 20.2534 16.6801C20.2534 17.0337 20.3939 17.3728 20.644 17.6229C20.894 17.8729 21.2332 18.0134 21.5868 18.0134Z" fill="#343434" fill-opacity="0.8"/>
<path d="M21.9109 17.1651C21.8149 17.2292 21.7022 17.2634 21.5868 17.2634C21.4321 17.2634 21.2837 17.2019 21.1743 17.0926C21.0649 16.9832 21.0034 16.8348 21.0034 16.6801C21.0034 16.5647 21.0377 16.4519 21.1018 16.356C21.1659 16.2601 21.257 16.1853 21.3636 16.1411C21.4701 16.097 21.5874 16.0854 21.7006 16.1079C21.8137 16.1305 21.9177 16.186 21.9993 16.2676C22.0808 16.3492 22.1364 16.4531 22.1589 16.5663C22.1814 16.6794 22.1699 16.7967 22.1257 16.9033C22.0816 17.0099 22.0068 17.101 21.9109 17.1651Z" stroke="#343434" stroke-opacity="0.8" stroke-width="1.5"/>
<path d="M10.52 24.9335C10.7837 24.9335 11.0415 24.8553 11.2608 24.7088C11.4801 24.5623 11.651 24.3541 11.7519 24.1104C11.8528 23.8668 11.8792 23.5987 11.8278 23.3401C11.7763 23.0814 11.6493 22.8438 11.4628 22.6574C11.2764 22.4709 11.0388 22.3439 10.7802 22.2925C10.5215 22.241 10.2534 22.2674 10.0098 22.3683C9.76616 22.4693 9.55792 22.6402 9.41141 22.8594C9.26491 23.0787 9.18671 23.3365 9.18671 23.6002C9.18671 23.9538 9.32718 24.2929 9.57723 24.543C9.82728 24.793 10.1664 24.9335 10.52 24.9335Z" fill="#343434" fill-opacity="0.8"/>
<path d="M10.8441 24.0852C10.7482 24.1493 10.6354 24.1835 10.52 24.1835C10.3653 24.1835 10.217 24.1221 10.1076 24.0127C9.99816 23.9033 9.93671 23.7549 9.93671 23.6002C9.93671 23.4848 9.97092 23.372 10.035 23.2761C10.0991 23.1802 10.1902 23.1054 10.2968 23.0612C10.4034 23.0171 10.5207 23.0055 10.6338 23.0281C10.747 23.0506 10.8509 23.1061 10.9325 23.1877C11.0141 23.2693 11.0697 23.3732 11.0922 23.4864C11.1147 23.5995 11.1031 23.7168 11.059 23.8234C11.0148 23.93 10.9401 24.0211 10.8441 24.0852Z" stroke="#343434" stroke-opacity="0.8" stroke-width="1.5"/>
<path d="M16.0001 24.9335C16.2639 24.9335 16.5216 24.8553 16.7409 24.7088C16.9602 24.5623 17.1311 24.3541 17.232 24.1104C17.3329 23.8668 17.3593 23.5987 17.3079 23.3401C17.2564 23.0814 17.1294 22.8438 16.943 22.6574C16.7565 22.4709 16.5189 22.3439 16.2603 22.2925C16.0016 22.241 15.7335 22.2674 15.4899 22.3683C15.2463 22.4693 15.038 22.6402 14.8915 22.8594C14.745 23.0787 14.6668 23.3365 14.6668 23.6002C14.6668 23.9538 14.8073 24.2929 15.0573 24.543C15.3074 24.793 15.6465 24.9335 16.0001 24.9335Z" fill="#343434" fill-opacity="0.8"/>
<path d="M16.3242 24.0852C16.2283 24.1493 16.1155 24.1835 16.0001 24.1835C15.8454 24.1835 15.6971 24.1221 15.5877 24.0127C15.4783 23.9033 15.4168 23.7549 15.4168 23.6002C15.4168 23.4848 15.451 23.372 15.5151 23.2761C15.5792 23.1802 15.6703 23.1054 15.7769 23.0612C15.8835 23.0171 16.0008 23.0055 16.1139 23.0281C16.2271 23.0506 16.331 23.1061 16.4126 23.1877L16.943 22.6574L16.4126 23.1877C16.4942 23.2693 16.5498 23.3732 16.5723 23.4864C16.5948 23.5995 16.5832 23.7168 16.5391 23.8234C16.4949 23.93 16.4202 24.0211 16.3242 24.0852Z" stroke="#343434" stroke-opacity="0.8" stroke-width="1.5"/>
<path d="M21.5868 24.9335C21.8505 24.9335 22.1083 24.8553 22.3275 24.7088C22.5468 24.5623 22.7177 24.3541 22.8186 24.1104C22.9195 23.8668 22.9459 23.5987 22.8945 23.3401C22.843 23.0814 22.7161 22.8438 22.5296 22.6574C22.3431 22.4709 22.1055 22.3439 21.8469 22.2925C21.5883 22.241 21.3202 22.2674 21.0765 22.3683C20.8329 22.4693 20.6247 22.6402 20.4782 22.8594C20.3316 23.0787 20.2534 23.3365 20.2534 23.6002C20.2534 23.9538 20.3939 24.2929 20.644 24.543C20.894 24.793 21.2332 24.9335 21.5868 24.9335Z" fill="#343434" fill-opacity="0.8"/>
<path d="M21.9109 24.0852C21.8149 24.1493 21.7022 24.1835 21.5868 24.1835C21.4321 24.1835 21.2837 24.1221 21.1743 24.0127C21.0649 23.9033 21.0034 23.7549 21.0034 23.6002C21.0034 23.4848 21.0377 23.372 21.1018 23.2761C21.1659 23.1802 21.257 23.1054 21.3636 23.0612C21.4701 23.0171 21.5874 23.0055 21.7006 23.0281C21.8137 23.0506 21.9177 23.1061 21.9993 23.1877C22.0808 23.2693 22.1364 23.3732 22.1589 23.4864C22.1814 23.5995 22.1699 23.7168 22.1257 23.8234C22.0816 23.93 22.0068 24.0211 21.9109 24.0852Z" stroke="#343434" stroke-opacity="0.8" stroke-width="1.5"/>
<path d="M21.4801 28.3201H10.5201C9.98029 28.3218 9.44548 28.2168 8.94644 28.0111C8.44741 27.8053 7.99399 27.5029 7.6123 27.1212C7.23061 26.7395 6.92818 26.2861 6.72243 25.787C6.51667 25.288 6.41165 24.7532 6.41341 24.2134V7.78674C6.41165 7.24695 6.51667 6.71215 6.72243 6.21311C6.92818 5.71407 7.23061 5.26065 7.6123 4.87896C7.99399 4.49727 8.44741 4.19485 8.94644 3.98909C9.44548 3.78333 9.98029 3.67831 10.5201 3.68008H21.4801C22.0199 3.67831 22.5547 3.78333 23.0537 3.98909C23.5528 4.19485 24.0062 4.49727 24.3879 4.87896C24.7695 5.26065 25.072 5.71407 25.2777 6.21311C25.4835 6.71215 25.5885 7.24695 25.5867 7.78674V24.2134C25.5885 24.7532 25.4835 25.288 25.2777 25.787C25.072 26.2861 24.7695 26.7395 24.3879 27.1212C24.0062 27.5029 23.5528 27.8053 23.0537 28.0111C22.5547 28.2168 22.0199 28.3218 21.4801 28.3201V28.3201Z" stroke="#343434" stroke-opacity="0.8" stroke-width="1.5" stroke-linecap="round" stroke-linejoin="round"/>
</svg>
