<svg width="32" height="32" viewBox="0 0 32 32" fill="none" xmlns="http://www.w3.org/2000/svg">
<path d="M9.14658 6.41332V3.66666" stroke="#343434" stroke-opacity="0.8" stroke-width="1.5" stroke-linecap="round" stroke-linejoin="round"/>
<path d="M22.8534 6.41332V3.66666" stroke="#343434" stroke-opacity="0.8" stroke-width="1.5" stroke-linecap="round" stroke-linejoin="round"/>
<path d="M24.0666 5.04022H7.93326C5.57326 5.04022 3.6666 6.94688 3.6666 9.30688V24.0802C3.6666 26.4402 5.57326 28.3469 7.93326 28.3469H24.0799C26.4399 28.3469 28.3466 26.4402 28.3466 24.0802V9.30688C28.3333 6.94688 26.4266 5.04022 24.0666 5.04022Z" stroke="#343434" stroke-opacity="0.8" stroke-width="1.5" stroke-linecap="round" stroke-linejoin="round"/>
<path d="M3.6666 10.5333H28.3333" stroke="#343434" stroke-opacity="0.8" stroke-width="1.5" stroke-linecap="round" stroke-linejoin="round"/>
<path d="M24 16.0001C24.7363 16.0001 25.3333 15.4031 25.3333 14.6668C25.3333 13.9304 24.7363 13.3334 24 13.3334C23.2636 13.3334 22.6666 13.9304 22.6666 14.6668C22.6666 15.4031 23.2636 16.0001 24 16.0001Z" fill="#343434" fill-opacity="0.8"/>
<path d="M18.6667 16.0001C19.4031 16.0001 20.0001 15.4031 20.0001 14.6668C20.0001 13.9304 19.4031 13.3334 18.6667 13.3334C17.9304 13.3334 17.3334 13.9304 17.3334 14.6668C17.3334 15.4031 17.9304 16.0001 18.6667 16.0001Z" fill="#343434" fill-opacity="0.8"/>
<path d="M13.3333 16.0001C14.0697 16.0001 14.6667 15.4031 14.6667 14.6668C14.6667 13.9304 14.0697 13.3334 13.3333 13.3334C12.597 13.3334 12 13.9304 12 14.6668C12 15.4031 12.597 16.0001 13.3333 16.0001Z" fill="#343434" fill-opacity="0.8"/>
<path d="M7.99993 16.0001C8.73631 16.0001 9.33326 15.4031 9.33326 14.6668C9.33326 13.9304 8.73631 13.3334 7.99993 13.3334C7.26355 13.3334 6.6666 13.9304 6.6666 14.6668C6.6666 15.4031 7.26355 16.0001 7.99993 16.0001Z" fill="#343434" fill-opacity="0.8"/>
<path d="M24 20.6534C24.7363 20.6534 25.3333 20.0565 25.3333 19.3201C25.3333 18.5837 24.7363 17.9868 24 17.9868C23.2636 17.9868 22.6666 18.5837 22.6666 19.3201C22.6666 20.0565 23.2636 20.6534 24 20.6534Z" fill="#343434" fill-opacity="0.8"/>
<path d="M18.6667 20.6534C19.4031 20.6534 20.0001 20.0565 20.0001 19.3201C20.0001 18.5837 19.4031 17.9868 18.6667 17.9868C17.9304 17.9868 17.3334 18.5837 17.3334 19.3201C17.3334 20.0565 17.9304 20.6534 18.6667 20.6534Z" fill="#343434" fill-opacity="0.8"/>
<path d="M13.3333 20.6534C14.0697 20.6534 14.6667 20.0565 14.6667 19.3201C14.6667 18.5837 14.0697 17.9868 13.3333 17.9868C12.597 17.9868 12 18.5837 12 19.3201C12 20.0565 12.597 20.6534 13.3333 20.6534Z" fill="#343434" fill-opacity="0.8"/>
<path d="M7.99993 20.6534C8.73631 20.6534 9.33326 20.0565 9.33326 19.3201C9.33326 18.5837 8.73631 17.9868 7.99993 17.9868C7.26355 17.9868 6.6666 18.5837 6.6666 19.3201C6.6666 20.0565 7.26355 20.6534 7.99993 20.6534Z" fill="#343434" fill-opacity="0.8"/>
<path d="M18.6667 25.2934C19.4031 25.2934 20.0001 24.6964 20.0001 23.96C20.0001 23.2237 19.4031 22.6267 18.6667 22.6267C17.9304 22.6267 17.3334 23.2237 17.3334 23.96C17.3334 24.6964 17.9304 25.2934 18.6667 25.2934Z" fill="#343434" fill-opacity="0.8"/>
<path d="M13.3333 25.2934C14.0697 25.2934 14.6667 24.6964 14.6667 23.96C14.6667 23.2237 14.0697 22.6267 13.3333 22.6267C12.597 22.6267 12 23.2237 12 23.96C12 24.6964 12.597 25.2934 13.3333 25.2934Z" fill="#343434" fill-opacity="0.8"/>
<path d="M7.99993 25.2934C8.73631 25.2934 9.33326 24.6964 9.33326 23.96C9.33326 23.2237 8.73631 22.6267 7.99993 22.6267C7.26355 22.6267 6.6666 23.2237 6.6666 23.96C6.6666 24.6964 7.26355 25.2934 7.99993 25.2934Z" fill="#343434" fill-opacity="0.8"/>
</svg>
