<svg width="32" height="32" viewBox="0 0 32 32" fill="none" xmlns="http://www.w3.org/2000/svg">
<path d="M20.2477 5.72015H22.8534C24.3734 5.72015 25.6 6.94684 25.6 8.46684V25.6002C25.6 27.1202 24.3734 28.3468 22.8534 28.3468H9.14672C7.62672 28.3468 6.40005 27.1202 6.40005 25.6002V8.46684C6.40005 6.94684 7.62672 5.72015 9.14672 5.72015H11.8934" stroke="#343434" stroke-opacity="0.8" stroke-width="1.5" stroke-linecap="round" stroke-linejoin="round"/>
<path d="M18.7467 7.77338H13.2667C12.5067 7.77338 11.8934 7.16004 11.8934 6.40004V5.02671C11.8934 4.26671 12.5067 3.65338 13.2667 3.65338H18.7467C19.5067 3.65338 20.12 4.26671 20.12 5.02671V6.40004C20.1067 7.16004 19.4934 7.77338 18.7467 7.77338Z" stroke="#343434" stroke-opacity="0.8" stroke-width="1.5" stroke-linecap="round" stroke-linejoin="round"/>
<path d="M10.52 11.8934H11.8933" stroke="#343434" stroke-opacity="0.8" stroke-width="1.5" stroke-linecap="round" stroke-linejoin="round"/>
<path d="M10.52 17.3735H21.48" stroke="#343434" stroke-opacity="0.8" stroke-width="1.5" stroke-linecap="round" stroke-linejoin="round"/>
<path d="M10.52 22.8535H21.48" stroke="#343434" stroke-opacity="0.8" stroke-width="1.5" stroke-linecap="round" stroke-linejoin="round"/>
</svg>
