<svg width="26" height="26" viewBox="0 0 26 26" fill="none" xmlns="http://www.w3.org/2000/svg">
<g id="Completed">
<g id="Group 1000003478">
<path id="Vector" d="M13.3692 6C13.6985 6.04583 14.0298 6.07877 14.3559 6.14025C15.3011 6.31837 16.1656 6.69493 16.9588 7.23588C17.0185 7.27454 17.07 7.3246 17.1103 7.3832C17.1507 7.44181 17.179 7.50779 17.1938 7.57738C17.2086 7.64697 17.2094 7.71878 17.1964 7.78871C17.1833 7.85864 17.1566 7.9253 17.1177 7.98488C17.0803 8.04554 17.0312 8.09812 16.9732 8.13953C16.9152 8.18094 16.8495 8.21035 16.78 8.22602C16.7105 8.2417 16.6385 8.24332 16.5684 8.2308C16.4982 8.21828 16.4313 8.19187 16.3715 8.15312C15.881 7.84024 15.3763 7.55919 14.8175 7.38985C12.9344 6.81871 11.1697 7.06627 9.55752 8.20526C8.3897 9.03001 7.61134 10.1465 7.26086 11.5364C6.83325 13.2319 7.08987 14.8342 8.06666 16.2845C9.06349 17.7649 10.4635 18.6448 12.2455 18.8786C13.5259 19.0461 14.7321 18.8012 15.8637 18.1815C15.9318 18.1442 15.9985 18.1047 16.0676 18.0701C16.3465 17.9304 16.6566 18.0174 16.8043 18.2751C16.9555 18.5391 16.8795 18.8723 16.5968 19.0189C16.1686 19.2412 15.7369 19.463 15.2863 19.6306C14.4829 19.9267 13.6284 20.0593 12.7731 20.0206C10.7495 19.9408 9.05581 19.1424 7.71234 17.6299C6.75174 16.5488 6.19404 15.2794 6.02388 13.8423C6.01852 13.821 6.01049 13.8005 6 13.7811C6 13.2697 6 12.7584 6 12.2472C6.03211 12.0644 6.06148 11.8811 6.09633 11.6983C6.36558 10.3021 6.9993 9.09505 7.99887 8.08615C9.04675 7.02839 10.306 6.36228 11.7768 6.10869C12.0411 6.06313 12.3084 6.03623 12.5743 6.00082L13.3692 6Z" fill="#2E3234"/>
<path id="Vector_2" d="M13.1214 15.6961C12.6573 15.6961 12.3151 15.5558 12.0274 15.2844C11.0897 14.3963 10.1525 13.5075 9.21589 12.618C8.96312 12.3776 8.94665 12.0444 9.16704 11.8144C9.38743 11.5844 9.71733 11.5866 9.97257 11.8279C10.8874 12.6933 11.8016 13.56 12.7149 14.4278C12.9699 14.6699 13.1286 14.6617 13.3462 14.3894C15.1997 12.0843 17.0532 9.77989 18.9067 7.47609C18.994 7.36768 19.0925 7.25653 19.2086 7.18654C19.4202 7.06002 19.6917 7.12342 19.8561 7.30648C20.0254 7.49503 20.0528 7.76455 19.898 7.97533C19.704 8.23991 19.4927 8.49213 19.2868 8.7482C17.5751 10.8785 15.863 13.0088 14.1504 15.1389C13.8677 15.4911 13.5043 15.6774 13.1214 15.6961Z" fill="#2E3234"/>
<path id="Vector_3" d="M19.9993 12.9484C19.9719 14.4673 19.5797 15.7163 18.8406 16.8583C18.6534 17.1476 18.3403 17.2291 18.0595 17.0603C17.8056 16.9075 17.7285 16.5704 17.9058 16.2918C18.2807 15.7023 18.5708 15.0776 18.7346 14.3981C18.9593 13.4717 18.9566 12.5048 18.727 11.5797C18.6778 11.3771 18.697 11.1869 18.845 11.0308C18.9863 10.8806 19.162 10.8197 19.3664 10.868C19.586 10.9199 19.7232 11.0623 19.7781 11.2797C19.9305 11.8769 20.0043 12.4868 19.9993 12.9484Z" fill="#2E3234"/>
</g>
</g>
</svg>
