<svg width="50" height="50" viewBox="0 0 50 50" fill="none" xmlns="http://www.w3.org/2000/svg">
<g id="Filter">
<rect id="Rectangle 1036" width="50" height="50" rx="10" fill="#2E3234"/>
<g id="Group 15">
<path id="Vector" d="M16.75 18.4215H18.802C18.963 19.1566 19.3144 19.8055 19.802 20.2681C20.2896 20.7307 20.8863 20.9814 21.5001 20.9814C22.1139 20.9814 22.7106 20.7307 23.1983 20.2681C23.6859 19.8055 24.0373 19.1566 24.1982 18.4215H33.25C33.4489 18.4215 33.6397 18.3234 33.7803 18.1489C33.921 17.9743 34 17.7376 34 17.4907C34 17.2438 33.921 17.0071 33.7803 16.8325C33.6397 16.658 33.4489 16.5599 33.25 16.5599H24.1982C24.0373 15.8248 23.6859 15.1759 23.1983 14.7133C22.7106 14.2507 22.1139 14 21.5001 14C20.8863 14 20.2896 14.2507 19.802 14.7133C19.3144 15.1759 18.963 15.8248 18.802 16.5599H16.75C16.5511 16.5599 16.3603 16.658 16.2197 16.8325C16.079 17.0071 16 17.2438 16 17.4907C16 17.7376 16.079 17.9743 16.2197 18.1489C16.3603 18.3234 16.5511 18.4215 16.75 18.4215ZM21.4997 15.8618C21.7593 15.8618 22.0131 15.9573 22.2289 16.1363C22.4448 16.3153 22.613 16.5697 22.7123 16.8674C22.8117 17.165 22.8377 17.4925 22.787 17.8085C22.7364 18.1244 22.6114 18.4147 22.4278 18.6425C22.2443 18.8703 22.0104 19.0254 21.7558 19.0883C21.5012 19.1511 21.2373 19.1189 20.9975 18.9956C20.7576 18.8723 20.5527 18.6635 20.4084 18.3957C20.2642 18.1278 20.1872 17.8129 20.1872 17.4907C20.1876 17.0588 20.3261 16.6448 20.5721 16.3394C20.8182 16.0341 21.1518 15.8623 21.4997 15.8618Z" fill="white"/>
<path id="Vector_2" d="M33.25 24.2389H31.198C31.0373 23.5037 30.686 22.8545 30.1984 22.3917C29.7109 21.9289 29.1141 21.6781 28.5002 21.6781C27.8864 21.6781 27.2896 21.9289 26.802 22.3917C26.3145 22.8545 25.9632 23.5037 25.8025 24.2389H16.75C16.5511 24.2389 16.3603 24.337 16.2197 24.5115C16.079 24.6861 16 24.9228 16 25.1697C16 25.4166 16.079 25.6533 16.2197 25.8279C16.3603 26.0024 16.5511 26.1005 16.75 26.1005H25.8025C25.9632 26.8357 26.3145 27.4849 26.802 27.9477C27.2896 28.4105 27.8864 28.6613 28.5002 28.6613C29.1141 28.6613 29.7109 28.4105 30.1984 27.9477C30.686 27.4849 31.0373 26.8357 31.198 26.1005H33.25C33.4489 26.1005 33.6397 26.0024 33.7803 25.8279C33.921 25.6533 34 25.4166 34 25.1697C34 24.9228 33.921 24.6861 33.7803 24.5115C33.6397 24.337 33.4489 24.2389 33.25 24.2389ZM28.5002 26.7986C28.2407 26.7986 27.9869 26.7031 27.7711 26.5241C27.5552 26.3451 27.387 26.0907 27.2877 25.7931C27.1883 25.4954 27.1623 25.1679 27.213 24.8519C27.2636 24.536 27.3886 24.2457 27.5722 24.0179C27.7557 23.7901 27.9896 23.635 28.2442 23.5721C28.4988 23.5093 28.7627 23.5415 29.0025 23.6648C29.2423 23.7881 29.4473 23.9969 29.5915 24.2648C29.7358 24.5326 29.8127 24.8475 29.8127 25.1697C29.8123 25.6016 29.6739 26.0156 29.4279 26.321C29.1818 26.6263 28.8482 26.7981 28.5002 26.7986Z" fill="white"/>
<path id="Vector_3" d="M33.25 31.9179H24.1982C24.0373 31.1829 23.6859 30.534 23.1983 30.0713C22.7106 29.6087 22.1139 29.358 21.5001 29.358C20.8863 29.358 20.2896 29.6087 19.802 30.0713C19.3144 30.534 18.963 31.1829 18.802 31.9179H16.75C16.5511 31.9179 16.3603 32.016 16.2197 32.1906C16.079 32.3651 16 32.6019 16 32.8487C16 33.0956 16.079 33.3323 16.2197 33.5069C16.3603 33.6815 16.5511 33.7795 16.75 33.7795H18.802C18.963 34.5146 19.3144 35.1635 19.802 35.6261C20.2896 36.0888 20.8863 36.3394 21.5001 36.3394C22.1139 36.3394 22.7106 36.0888 23.1983 35.6261C23.6859 35.1635 24.0373 34.5146 24.1982 33.7795H33.25C33.4489 33.7795 33.6397 33.6815 33.7803 33.5069C33.921 33.3323 34 33.0956 34 32.8487C34 32.6019 33.921 32.3651 33.7803 32.1906C33.6397 32.016 33.4489 31.9179 33.25 31.9179ZM21.4997 34.4776C21.2402 34.4776 20.9864 34.3821 20.7706 34.2031C20.5547 34.0241 20.3865 33.7697 20.2872 33.4721C20.1878 33.1744 20.1618 32.8469 20.2125 32.531C20.2631 32.215 20.3881 31.9247 20.5717 31.6969C20.7552 31.4691 20.9891 31.314 21.2437 31.2512C21.4983 31.1883 21.7622 31.2206 22.002 31.3438C22.2418 31.4671 22.4468 31.6759 22.5911 31.9438C22.7353 32.2116 22.8122 32.5266 22.8122 32.8487C22.8117 33.2805 22.6732 33.6944 22.4272 33.9997C22.1812 34.305 21.8477 34.4769 21.4997 34.4776Z" fill="white"/>
</g>
</g>
</svg>
