<svg width="28" height="28" viewBox="0 0 28 28" fill="none" xmlns="http://www.w3.org/2000/svg">
<path d="M24.7917 10.1733C24.7917 11.5266 24.2784 12.8916 23.24 13.9299L21.5134 15.6566L14.0817 23.0883C14.0467 23.1233 14.035 23.135 14 23.1583C13.965 23.135 13.9534 23.1233 13.9184 23.0883L4.76004 13.9299C3.72171 12.8916 3.20837 11.5383 3.20837 10.1733C3.20837 8.80828 3.72171 7.44328 4.76004 6.40495C6.83671 4.33995 10.1967 4.33995 12.2734 6.40495L13.9884 8.13161L15.715 6.40495C17.7917 4.33995 21.14 4.33995 23.2167 6.40495C24.2784 7.44328 24.7917 8.79661 24.7917 10.1733Z" fill="white" stroke="#8F8F8F" stroke-width="1.5" stroke-linecap="round" stroke-linejoin="round"/>
</svg>
