<svg width="32" height="32" viewBox="0 0 32 32" fill="none" xmlns="http://www.w3.org/2000/svg">
<path d="M25.6269 12.2933L23.8536 13.3467L16.8136 17.52C16.2803 17.8134 15.6136 17.8134 15.0936 17.52L8.0536 13.3467L6.28029 12.2933C5.09362 11.6 5.09362 9.81338 6.28029 9.12004L15.1069 3.87997C15.6403 3.58664 16.3069 3.58664 16.8269 3.87997L25.6536 9.12004C26.8136 9.81338 26.8136 11.6133 25.6269 12.2933Z" stroke="#343434" stroke-opacity="0.8" stroke-width="1.5" stroke-linecap="round" stroke-linejoin="round"/>
<path d="M26.4401 15.4534C26.6667 16.2268 26.4001 17.1334 25.6268 17.5867L16.8001 22.8267C16.2668 23.1201 15.6001 23.1201 15.0801 22.8267L6.25342 17.5867C5.53342 17.1601 5.25342 16.3334 5.41342 15.5867" stroke="#343434" stroke-opacity="0.8" stroke-width="1.5" stroke-linecap="round" stroke-linejoin="round"/>
<path d="M26.4669 20.8266C26.6536 21.5866 26.3736 22.4399 25.6403 22.8799L16.8136 28.12C16.2803 28.4133 15.6136 28.4133 15.0936 28.12L6.26693 22.8799C5.58693 22.4799 5.29361 21.72 5.40027 21.0133" stroke="#343434" stroke-opacity="0.8" stroke-width="1.5" stroke-linecap="round" stroke-linejoin="round"/>
</svg>
