<svg width="26" height="26" viewBox="0 0 26 26" fill="none" xmlns="http://www.w3.org/2000/svg">
<g id="Next">
<g id="Iconly/Light-Outline/Arrow---Left">
<g id="Arrow---Left">
<path id="Combined-Shape" d="M6 12.7481C6 13.0703 6.2394 13.3366 6.55001 13.3787L6.63636 13.3845L17.8228 13.384L13.7815 17.4088C13.5324 17.6568 13.5315 18.0597 13.7795 18.3088C14.005 18.5352 14.3585 18.5565 14.608 18.3722L14.6795 18.3107L19.8128 13.1994C19.8456 13.1667 19.8742 13.1314 19.8984 13.094C19.9052 13.0828 19.9121 13.0713 19.9187 13.0595C19.9248 13.0495 19.9303 13.039 19.9355 13.0285C19.9427 13.0131 19.9497 12.9972 19.956 12.981C19.9612 12.9685 19.9655 12.9564 19.9695 12.9441C19.9742 12.929 19.9787 12.9128 19.9827 12.8963C19.9856 12.8849 19.9879 12.8738 19.9899 12.8628C19.9927 12.8463 19.9951 12.8292 19.9968 12.812C19.9983 12.7988 19.9992 12.7857 19.9997 12.7727C19.9998 12.7648 20 12.7565 20 12.7481L19.9997 12.7235C19.9992 12.711 19.9983 12.6985 19.9971 12.6861L20 12.7481C20 12.708 19.9963 12.6687 19.9892 12.6306C19.9875 12.6215 19.9856 12.6122 19.9834 12.6029C19.9789 12.5837 19.9736 12.5653 19.9676 12.5472C19.9647 12.5382 19.9612 12.5286 19.9575 12.5191C19.9501 12.4999 19.942 12.4817 19.9331 12.4639C19.929 12.4555 19.9244 12.4468 19.9195 12.4381C19.9116 12.424 19.9034 12.4105 19.8947 12.3974C19.8886 12.3882 19.8818 12.3785 19.8748 12.369L19.8693 12.3617C19.8521 12.3393 19.8335 12.3181 19.8136 12.2982L19.8128 12.2976L14.6795 7.18546C14.4305 6.93746 14.0276 6.93829 13.7796 7.18732C13.5541 7.41371 13.5343 7.76728 13.7197 8.01603L13.7814 8.08727L17.8211 12.1113L6.63636 12.1118C6.28491 12.1118 6 12.3967 6 12.7481Z" fill="#1B2C41"/>
</g>
</g>
</g>
</svg>
