<svg width="26" height="26" viewBox="0 0 26 26" fill="none" xmlns="http://www.w3.org/2000/svg">
<g id="vuesax/linear/profile">
<g id="vuesax/linear/profile_2">
<g id="profile">
<path id="Vector" d="M13.1733 11.7759C13.065 11.7651 12.935 11.7651 12.8158 11.7759C10.2375 11.6892 8.19 9.57675 8.19 6.97675C8.19 4.32258 10.335 2.16675 13 2.16675C15.6542 2.16675 17.81 4.32258 17.81 6.97675C17.7992 9.57675 15.7517 11.6892 13.1733 11.7759Z" stroke="#8F8F8F" stroke-width="1.5" stroke-linecap="round" stroke-linejoin="round"/>
<path id="Vector_2" d="M7.75667 15.7733C5.135 17.5283 5.135 20.3883 7.75667 22.1324C10.7358 24.1258 15.6217 24.1258 18.6008 22.1324C21.2225 20.3774 21.2225 17.5174 18.6008 15.7733C15.6325 13.7908 10.7467 13.7908 7.75667 15.7733Z" stroke="#8F8F8F" stroke-width="1.5" stroke-linecap="round" stroke-linejoin="round"/>
</g>
</g>
</g>
</svg>
