<svg width="32" height="32" viewBox="0 0 32 32" fill="none" xmlns="http://www.w3.org/2000/svg">
<path d="M16 28.3334C22.053 28.3334 26.96 23.4264 26.96 17.3734C26.96 11.3204 22.053 6.41339 16 6.41339C9.94697 6.41339 5.04001 11.3204 5.04001 17.3734C5.04001 23.4264 9.94697 28.3334 16 28.3334Z" stroke="#343434" stroke-opacity="0.8" stroke-width="1.5" stroke-linecap="round" stroke-linejoin="round"/>
<path d="M16 3.66669V6.41335" stroke="#343434" stroke-opacity="0.8" stroke-width="1.5" stroke-linecap="round" stroke-linejoin="round"/>
<path d="M6.30664 7.68005L7.77327 9.14673" stroke="#343434" stroke-opacity="0.8" stroke-width="1.5" stroke-linecap="round" stroke-linejoin="round"/>
<path d="M25.6933 7.68005L24.2267 9.14673" stroke="#343434" stroke-opacity="0.8" stroke-width="1.5" stroke-linecap="round" stroke-linejoin="round"/>
<path d="M15.9999 18.7467C16.7584 18.7467 17.3733 18.1318 17.3733 17.3733C17.3733 16.6149 16.7584 16 15.9999 16C15.2415 16 14.6266 16.6149 14.6266 17.3733C14.6266 18.1318 15.2415 18.7467 15.9999 18.7467Z" stroke="#343434" stroke-opacity="0.8" stroke-width="1.5" stroke-linecap="round" stroke-linejoin="round"/>
<path d="M16 17.3733L19.4267 13.9466" stroke="#343434" stroke-opacity="0.8" stroke-width="1.5" stroke-linecap="round" stroke-linejoin="round"/>
<path d="M14.6266 3.66669H17.3733" stroke="#343434" stroke-opacity="0.8" stroke-width="1.5" stroke-linecap="round" stroke-linejoin="round"/>
</svg>
