<?xml version="1.0" encoding="UTF-8" standalone="no"?>
<svg width="127" height="139" viewBox="0 0 127 139" fill="none" xmlns="http://www.w3.org/2000/svg">
	<g id="Group">
		<g id="Group_2">
			<path id="Vector" fill-rule="evenodd" clip-rule="evenodd" d="M72.11 85.63L114.97 42.77L72.11 0L29.25 42.77L72.11 85.63Z" fill="url(#paint0_linear_3806_252)"/>
			<path id="Vector_2" fill-rule="evenodd" clip-rule="evenodd" d="M42.22 74.04L72.12 85.63L29.25 42.77L7.73001 39.55L42.22 74.04Z" fill="url(#paint1_linear_3806_252)"/>
			<g id="Group_3">
				<path id="Vector_3" fill-rule="evenodd" clip-rule="evenodd" d="M42.31 4.32L72.11 0L29.25 42.77L7.73001 39.55L42.31 4.32Z" fill="url(#paint2_linear_3806_252)"/>
			</g>
			<path id="Vector_4" fill-rule="evenodd" clip-rule="evenodd" d="M0 100.53L59.51 106.41L124.08 100.53L47.19 95.01L0 100.53Z" fill="url(#paint3_radial_3806_252)"/>
		</g>
		<g id="Group_4">
			<g id="Group_5">
				<path id="Vector_5" d="M18.38 132.38C17.1 139.69 5.99 136.99 4.03 136.39L3.81 133.58C5.85 134.48 8.07 135.16 10.04 135.16C14.31 135.14 14.99 132.82 15.03 131.99C15.09 130.67 14.97 130.11 13.23 128.52C11.02 126.68 7.34 123.69 6.41 122.73C5.11 121.45 4.69 120.19 4.69 119.04C4.69 116.27 6.68 113.25 12.54 113.27C15.33 113.29 16.78 113.63 17.56 113.83L17.82 116.52C15.84 115.95 14.42 115.58 12.19 115.58C10.35 115.66 8.02 116.85 8.02 118.91C8.06 120.02 8.67 120.9 9.66 121.86C10.2 122.39 13.69 125.21 15.83 126.93C17.59 128.35 18.74 130.37 18.38 132.38Z" fill="#BD2428"/>
				<path id="Vector_6" d="M44.22 137.02H40.5C40.77 133.17 41.03 129.47 41.03 126.18H26.38C26.26 129.57 26.06 132.69 26.06 137L22.45 137.02C22.57 135.46 22.95 129.21 23.15 124.66C23.27 120.07 23.45 119.07 23.41 113.66H27C26.85 117.09 26.6 121.29 26.48 123.86L41.19 123.88C41.29 121.56 41.49 117.99 41.49 113.64H45.11C44.92 116.98 44.55 122.37 44.47 124.7C44.39 127.04 44.03 133.28 44.22 137.02Z" fill="#BD2428"/>
				<path id="Vector_7" d="M72.11 137.02H68.47C68.47 136.21 66.6 131.48 64.96 127.24L55.02 127.18L50.13 137.02L46.28 136.98L49.99 130.43L59.09 113.66H63.2L72.11 137.02ZM64.25 124.96L60.9 115.86L56.09 124.96H64.25Z" fill="#BD2428"/>
				<path id="Vector_8" d="M98.62 124.06C98.62 127.46 97.74 130.58 95.38 133.15C93.01 135.72 90.14 136.81 85.52 136.97C84.17 136.97 77.74 136.97 75.22 137.01C75.41 133.29 76.51 117.29 76.3 113.65C76.3 113.65 80.24 113.65 81.31 113.63C91.21 113.49 93.07 114.05 95.36 116.09C97.62 118.1 98.62 120.91 98.62 124.06ZM95.25 125.27C95.43 121.87 94.57 118.78 91.96 117.12C89.69 115.69 86.03 115.91 82.17 115.91C81.62 115.91 79.48 115.96 79.48 115.96C79.48 115.96 78.74 132.05 78.73 134.7C79.69 134.72 82.2 134.8 83.16 134.8C86.6 134.8 89.29 134.5 91.4 132.84C93.92 130.86 95.11 127.9 95.25 125.27Z" fill="#BD2428"/>
				<path id="Vector_9" d="M118.5 134.64L118.35 136.95L102.35 136.97C102.65 133.12 103.33 123.52 103.37 113.67H119.46C119.46 113.67 119.16 116.07 119.23 116.01C111.46 115.86 106.73 115.95 106.73 115.95C106.73 115.95 106.49 120.79 106.36 123.97C109.83 123.97 115.01 124.08 117.72 123.93L117.56 126.29C114.29 126.15 106.2 126.29 106.2 126.29C106.1 128.14 105.98 132.07 105.9 134.77C110.23 134.78 114.01 134.88 118.5 134.64Z" fill="#BD2428"/>
			</g>
			<g id="Group_6">
				<g id="Group_7">
					<path id="Vector_10" d="M123.17 137.24V135.01H124.12C124.32 135.01 124.47 135.03 124.57 135.07C124.67 135.11 124.75 135.18 124.81 135.28C124.87 135.38 124.9 135.5 124.9 135.62C124.9 135.78 124.85 135.92 124.75 136.02C124.65 136.13 124.5 136.2 124.29 136.23C124.36 136.27 124.42 136.31 124.46 136.34C124.54 136.42 124.62 136.52 124.69 136.64L125.07 137.25H124.71L124.42 136.78C124.34 136.65 124.27 136.54 124.22 136.48C124.17 136.4 124.12 136.35 124.07 136.33C124.03 136.3 123.98 136.28 123.94 136.27C123.9 136.26 123.85 136.26 123.78 136.26H123.45V137.25H123.17V137.24ZM123.46 135.99H124.07C124.2 135.99 124.3 135.98 124.37 135.95C124.44 135.93 124.5 135.88 124.54 135.82C124.58 135.76 124.59 135.69 124.59 135.62C124.59 135.52 124.56 135.43 124.48 135.36C124.41 135.29 124.29 135.26 124.13 135.26H123.45V135.99H123.46Z" fill="#BD2428"/>
				</g>
				<path id="Vector_11" d="M124.12 134.05C122.98 134.05 122.05 134.98 122.05 136.12C122.05 137.27 122.98 138.19 124.12 138.19C125.27 138.19 126.2 137.26 126.2 136.12C126.19 134.98 125.27 134.05 124.12 134.05ZM124.12 137.91C123.14 137.91 122.34 137.1 122.34 136.12C122.34 135.14 123.14 134.33 124.12 134.33C125.11 134.33 125.91 135.13 125.91 136.12C125.91 137.1 125.1 137.91 124.12 137.91Z" fill="#BD2428"/>
			</g>
		</g>
	</g>
	<defs>
		<linearGradient id="paint0_linear_3806_252" x1="24.4683" y1="42.8167" x2="110.585" y2="42.8167" gradientUnits="userSpaceOnUse">
			<stop stop-color="white"/>
			<stop offset="0.00293946" stop-color="#F9F9FC"/>
			<stop offset="0.018" stop-color="#DDE1EF"/>
			<stop offset="0.0349" stop-color="#C5CDE4"/>
			<stop offset="0.0544" stop-color="#B4BEDB"/>
			<stop offset="0.0778" stop-color="#A7B3D5"/>
			<stop offset="0.1092" stop-color="#A0ADD2"/>
			<stop offset="0.1825" stop-color="#9EABD1"/>
			<stop offset="0.513" stop-color="#6371B2"/>
			<stop offset="0.7929" stop-color="#354DA0"/>
			<stop offset="0.926" stop-color="#21409A"/>
		</linearGradient>
		<linearGradient id="paint1_linear_3806_252" x1="15.6571" y1="32.7128" x2="56.2441" y2="82.6957" gradientUnits="userSpaceOnUse">
			<stop stop-color="white"/>
			<stop offset="0.00284787" stop-color="#F9F9FC"/>
			<stop offset="0.0174" stop-color="#DDE1EF"/>
			<stop offset="0.0338" stop-color="#C5CDE4"/>
			<stop offset="0.0527" stop-color="#B4BEDB"/>
			<stop offset="0.0754" stop-color="#A7B3D5"/>
			<stop offset="0.1058" stop-color="#A0ADD2"/>
			<stop offset="0.1768" stop-color="#9EABD1"/>
			<stop offset="0.2708" stop-color="#808DC1"/>
			<stop offset="0.3978" stop-color="#606FB1"/>
			<stop offset="0.5206" stop-color="#465AA6"/>
			<stop offset="0.6363" stop-color="#334B9F"/>
			<stop offset="0.7419" stop-color="#25439B"/>
			<stop offset="0.8285" stop-color="#21409A"/>
		</linearGradient>
		<linearGradient id="paint2_linear_3806_252" x1="41.4975" y1="72.5087" x2="39.9008" y2="19.1791" gradientUnits="userSpaceOnUse">
			<stop stop-color="white"/>
			<stop offset="1" stop-color="#21409A"/>
		</linearGradient>
		<radialGradient id="paint3_radial_3806_252" cx="0" cy="0" r="1" gradientUnits="userSpaceOnUse" gradientTransform="translate(64.3771 101.981) scale(44.0439 44.0439)">
			<stop offset="0.3423" stop-color="#9EABD1"/>
			<stop offset="1" stop-color="#21409A"/>
		</radialGradient>
	</defs>
</svg>
